<?xml version="1.0" encoding="UTF-8" standalone="no"?>
<!-- Created with Inkscape (http://www.inkscape.org/) -->

<svg
   xmlns:dc="http://purl.org/dc/elements/1.1/"
   xmlns:cc="http://creativecommons.org/ns#"
   xmlns:rdf="http://www.w3.org/1999/02/22-rdf-syntax-ns#"
   xmlns:svg="http://www.w3.org/2000/svg"
   xmlns="http://www.w3.org/2000/svg"
   xmlns:sodipodi="http://sodipodi.sourceforge.net/DTD/sodipodi-0.dtd"
   xmlns:inkscape="http://www.inkscape.org/namespaces/inkscape"
   id="svg2985"
   version="1.1"
   inkscape:version="0.48.3.1 r9886"
   width="1314.1193"
   height="459.8125"
   sodipodi:docname="SIMU-Logo-prop3-ppp.png">
  <metadata
     id="metadata2991">
    <rdf:RDF>
      <cc:Work
         rdf:about="">
        <dc:format>image/svg+xml</dc:format>
        <dc:type
           rdf:resource="http://purl.org/dc/dcmitype/StillImage" />
        <dc:title></dc:title>
      </cc:Work>
    </rdf:RDF>
  </metadata>
  <defs
     id="defs2989" />
  <sodipodi:namedview
     pagecolor="#ffffff"
     bordercolor="#666666"
     borderopacity="1"
     objecttolerance="10"
     gridtolerance="10"
     guidetolerance="10"
     inkscape:pageopacity="0"
     inkscape:pageshadow="2"
     inkscape:window-width="1920"
     inkscape:window-height="1154"
     id="namedview2987"
     showgrid="false"
     showguides="true"
     inkscape:guide-bbox="true"
     inkscape:zoom="0.64649762"
     inkscape:cx="431.62947"
     inkscape:cy="9.7809333"
     inkscape:window-x="0"
     inkscape:window-y="0"
     inkscape:window-maximized="1"
     inkscape:current-layer="svg2985"
     fit-margin-top="0"
     fit-margin-left="0"
     fit-margin-right="0"
     fit-margin-bottom="0">
    <sodipodi:guide
       orientation="0,1"
       position="186.66511,229.90625"
       id="guide3005" />
    <sodipodi:guide
       orientation="1,0"
       position="200.06355,227.10352"
       id="guide3007" />
    <sodipodi:guide
       orientation="1,0"
       position="79.477608,229.90625"
       id="guide3009" />
    <sodipodi:guide
       orientation="1,0"
       position="319.2823,229.90625"
       id="guide3011" />
    <sodipodi:guide
       orientation="0,1"
       position="326.11824,309.47656"
       id="guide3013" />
    <sodipodi:guide
       orientation="1,0"
       position="-0.0072521105,225.20654"
       id="guide3015" />
    <sodipodi:guide
       orientation="1,0"
       position="240.05378,227.10352"
       id="guide3019" />
    <sodipodi:guide
       orientation="0,1"
       position="205.39558,378.38281"
       id="guide3023" />
    <sodipodi:guide
       orientation="1,0"
       position="210.04402,223.54883"
       id="guide3025" />
    <sodipodi:guide
       orientation="0,1"
       position="201.97761,80.472656"
       id="guide3051" />
    <sodipodi:guide
       orientation="0,1"
       position="80.400458,150.35303"
       id="guide3919" />
    <sodipodi:guide
       orientation="1,0"
       position="400.1092,227.9716"
       id="guide3923" />
  </sodipodi:namedview>
  <path
     style="color:#000000;fill:#4f81bd;fill-opacity:1;fill-rule:nonzero;stroke:none;stroke-width:2.38244224;marker:none;visibility:visible;display:inline;overflow:visible;enable-background:accumulate"
     d="M 200.40625 0 C 117.08571 0 44.10554 44.306756 3.78125 110.65625 L 66.4375 116.9375 C 98.538443 79.001758 146.47572 54.90625 200.0625 54.90625 C 253.64928 54.90625 301.58656 79.001758 333.6875 116.9375 L 396.96875 110.59375 C 356.63522 44.285198 283.6959 0 200.40625 0 z M 66.5 342.9375 L 3.84375 349.21875 C 44.17728 415.5273 117.1166 459.8125 200.40625 459.8125 C 283.67095 459.8125 356.59652 415.55675 396.9375 349.28125 L 333.625 342.96875 C 301.52437 380.85535 253.60915 404.90625 200.0625 404.90625 C 146.50729 404.90625 98.600704 380.83458 66.5 342.9375 z "
     id="path3052-0" />
  <path
     style="fill:#4f81bd;fill-opacity:1"
     d="m 200.07136,81.4375 c -39.14602,0 -74.83256,14.649221 -101.687502,38.6875 51.878462,8.77092 91.437502,54.58727 91.437502,109.78125 0,55.51297 -40.02307,101.51615 -92.343752,109.90625 26.957462,24.5376 62.999582,39.53125 102.593752,39.53125 39.57819,0 75.57919,-14.98323 102.53125,-39.5 -52.42747,-8.29709 -92.5625,-54.34748 -92.5625,-109.9375 0,-55.27104 39.67095,-101.13295 91.65625,-109.8125 C 274.847,96.068799 239.20144,81.4375 200.07136,81.4375 z"
     id="path3049"
     inkscape:connector-curvature="0" />
  <path
     sodipodi:type="arc"
     style="fill:#4f81bd;fill-opacity:1"
     id="path3029-3"
     sodipodi:cx="112.04102"
     sodipodi:cy="99.960938"
     sodipodi:rx="69.179688"
     sodipodi:ry="69.179688"
     d="m 181.22071,99.960937 a 69.179687,69.179687 0 1 1 -138.359374,10e-7 69.179687,69.179687 0 1 1 138.359374,-10e-7 z"
     transform="matrix(1.157017,0,0,1.1501976,190.46249,114.93142)" />
  <path
     sodipodi:type="arc"
     style="fill:#4f81bd;fill-opacity:1"
     id="path3029"
     sodipodi:cx="112.04102"
     sodipodi:cy="99.960938"
     sodipodi:rx="69.179688"
     sodipodi:ry="69.179688"
     d="m 181.22071,99.960937 a 69.179687,69.179687 0 1 1 -138.359374,10e-7 69.179687,69.179687 0 1 1 138.359374,-10e-7 z"
     transform="matrix(1.157017,0,0,1.1501976,-49.591294,114.93142)" />
  <text
     xml:space="preserve"
     style="font-size:317.04629517px;font-style:normal;font-variant:normal;font-weight:bold;font-stretch:normal;line-height:125%;letter-spacing:0px;word-spacing:0px;fill:#000000;fill-opacity:1;stroke:none;font-family:Arial;-inkscape-font-specification:Arial Bold"
     x="440.23773"
     y="346.98114"
     id="text3841"
     sodipodi:linespacing="125%"
     transform="scale(1.0078592,0.99220208)"><tspan
       sodipodi:role="line"
       id="tspan3843"
       x="440.23773"
       y="346.98114"
       style="font-style:normal;font-variant:normal;font-weight:bold;font-stretch:normal;font-family:URW Bookman L;-inkscape-font-specification:URW Bookman L Bold">SIMU</tspan></text>
</svg>
